<mxfile host="app.diagrams.net" modified="2022-06-06T22:24:57.560Z" agent="5.0 (Macintosh; Intel Mac OS X 10_15_7) AppleWebKit/605.1.15 (KHTML, like Gecko) Version/15.4 Safari/605.1.15" etag="SWDjnCjIt2nmxUqJys-m" version="19.0.1" type="github">
  <diagram id="C5RBs43oDa-KdzZeNtuy" name="Page-1">
    <mxGraphModel dx="788" dy="518" grid="1" gridSize="10" guides="1" tooltips="1" connect="1" arrows="1" fold="1" page="1" pageScale="1" pageWidth="827" pageHeight="1169" math="0" shadow="0">
      <root>
        <mxCell id="WIyWlLk6GJQsqaUBKTNV-0" />
        <mxCell id="WIyWlLk6GJQsqaUBKTNV-1" parent="WIyWlLk6GJQsqaUBKTNV-0" />
        <mxCell id="mKFjjN0TuRmioYyIV8rE-8" value="Racer" style="swimlane;fontStyle=1;align=center;verticalAlign=top;childLayout=stackLayout;horizontal=1;startSize=26;horizontalStack=0;resizeParent=1;resizeParentMax=0;resizeLast=0;collapsible=1;marginBottom=0;" vertex="1" parent="WIyWlLk6GJQsqaUBKTNV-1">
          <mxGeometry x="40" y="40" width="220" height="250" as="geometry" />
        </mxCell>
        <mxCell id="mKFjjN0TuRmioYyIV8rE-9" value="&lt;&lt;get/set&gt;&gt; -name : String&#xa;&lt;&lt;get/set&gt;&gt; -surname : String&#xa;&lt;&lt;get/set&gt;&gt; -nationality : Nationality&#xa;&lt;&lt;get/set&gt;&gt; -position : int&#xa;&lt;&lt;get/set&gt;&gt; -points : int&#xa;&lt;&lt;get/set&gt;&gt; -bike : String&#xa;&lt;&lt;get/set&gt;&gt; -team : String&#xa;&lt;&lt;get/set&gt;&gt; -racingNumber : int&#xa;&lt;&lt;get/set&gt;&gt; -maxSpeed : double&#xa;&lt;&lt;get/set&gt;&gt; -raceTime : String" style="text;strokeColor=none;fillColor=none;align=left;verticalAlign=top;spacingLeft=4;spacingRight=4;overflow=hidden;rotatable=0;points=[[0,0.5],[1,0.5]];portConstraint=eastwest;" vertex="1" parent="mKFjjN0TuRmioYyIV8rE-8">
          <mxGeometry y="26" width="220" height="154" as="geometry" />
        </mxCell>
        <mxCell id="mKFjjN0TuRmioYyIV8rE-10" value="" style="line;strokeWidth=1;fillColor=none;align=left;verticalAlign=middle;spacingTop=-1;spacingLeft=3;spacingRight=3;rotatable=0;labelPosition=right;points=[];portConstraint=eastwest;" vertex="1" parent="mKFjjN0TuRmioYyIV8rE-8">
          <mxGeometry y="180" width="220" height="8" as="geometry" />
        </mxCell>
        <mxCell id="mKFjjN0TuRmioYyIV8rE-11" value="+ toInternalDatabaseFormat() : String&#xa;+ toString() : String&#xa;+ compareTo(Racer) : int&#xa;" style="text;strokeColor=none;fillColor=none;align=left;verticalAlign=top;spacingLeft=4;spacingRight=4;overflow=hidden;rotatable=0;points=[[0,0.5],[1,0.5]];portConstraint=eastwest;" vertex="1" parent="mKFjjN0TuRmioYyIV8rE-8">
          <mxGeometry y="188" width="220" height="62" as="geometry" />
        </mxCell>
        <mxCell id="mKFjjN0TuRmioYyIV8rE-16" value="Race" style="swimlane;fontStyle=1;align=center;verticalAlign=top;childLayout=stackLayout;horizontal=1;startSize=26;horizontalStack=0;resizeParent=1;resizeParentMax=0;resizeLast=0;collapsible=1;marginBottom=0;" vertex="1" parent="WIyWlLk6GJQsqaUBKTNV-1">
          <mxGeometry x="320" y="40" width="220" height="250" as="geometry" />
        </mxCell>
        <mxCell id="mKFjjN0TuRmioYyIV8rE-17" value="&lt;&lt;get/set&gt;&gt; -seasonYear : String&#xa;" style="text;strokeColor=none;fillColor=none;align=left;verticalAlign=top;spacingLeft=4;spacingRight=4;overflow=hidden;rotatable=0;points=[[0,0.5],[1,0.5]];portConstraint=eastwest;" vertex="1" parent="mKFjjN0TuRmioYyIV8rE-16">
          <mxGeometry y="26" width="220" height="154" as="geometry" />
        </mxCell>
        <mxCell id="mKFjjN0TuRmioYyIV8rE-18" value="" style="line;strokeWidth=1;fillColor=none;align=left;verticalAlign=middle;spacingTop=-1;spacingLeft=3;spacingRight=3;rotatable=0;labelPosition=right;points=[];portConstraint=eastwest;" vertex="1" parent="mKFjjN0TuRmioYyIV8rE-16">
          <mxGeometry y="180" width="220" height="8" as="geometry" />
        </mxCell>
        <mxCell id="mKFjjN0TuRmioYyIV8rE-19" value="+ toInternalDatabaseFormat() : String&#xa;+ toString() : String&#xa;+ compareTo(Racer) : int&#xa;" style="text;strokeColor=none;fillColor=none;align=left;verticalAlign=top;spacingLeft=4;spacingRight=4;overflow=hidden;rotatable=0;points=[[0,0.5],[1,0.5]];portConstraint=eastwest;" vertex="1" parent="mKFjjN0TuRmioYyIV8rE-16">
          <mxGeometry y="188" width="220" height="62" as="geometry" />
        </mxCell>
      </root>
    </mxGraphModel>
  </diagram>
</mxfile>
